{
  "source": "C:\\Users\\Peter\\Desktop\\stuff\\MIUN\\quantitative_research\\video_compression\\videos\\HEVC_CLASS_B\\ParkScene_1920x1080_24.y4m",
  "output": "C:\\Users\\Peter\\Desktop\\stuff\\MIUN\\quantitative_research\\video_compression\\compressed_videos\\HEVC_CLASS_B\\vp9\\2\\ParkScene_1920x1080_24_vp9.webm",
  "codec": "vp9",
  "ok": "Input #0, yuv4mpegpipe, from 'C:\\Users\\Peter\\Desktop\\stuff\\MIUN\\quantitative_research\\video_compression\\videos\\HEVC_CLASS_B\\ParkScene_1920x1080_24.y4m':\n  Duration: 00:00:10.00, start: 0.000000, bitrate: 597198 kb/s\n  Stream #0:0: Video: rawvideo (I420 / 0x30323449), yuv420p(progressive), 1920x1080, 24 fps, 24 tbr, 24 tbn\n[out#0/webm @ 0000023486aa9a00] Codec AVOption b:a (set bitrate (in bits/s)) has not been used for any stream. The most likely reason is either wrong type (e.g. a video option with no video streams) or that it is a private option of some decoder which was not actually used for any stream.\nStream mapping:\n  Stream #0:0 -> #0:0 (rawvideo (native) -> vp9 (libvpx-vp9))\nPress [q] to stop, [?] for help\n[libvpx-vp9 @ 0000023486aace00] v1.15.2-100-g40561f514\nOutput #0, webm, to 'C:\\Users\\Peter\\Desktop\\stuff\\MIUN\\quantitative_research\\video_compression\\compressed_videos\\HEVC_CLASS_B\\vp9\\2\\ParkScene_1920x1080_24_vp9.webm':\n  Metadata:\n    encoder         : Lavf62.3.100\n  Stream #0:0: Video: vp9, yuv420p(tv, progressive), 1920x1080, q=2-31, 2000 kb/s, 24 fps, 1k tbn\n    Metadata:\n      encoder         : Lavc62.11.100 libvpx-vp9\n    Side data:\n      cpb: bitrate max/min/avg: 0/0/0 buffer size: 2000000 vbv_delay: N/A\nframe=    0 fps=0.0 q=0.0 size=       0KiB time=N/A bitrate=N/A speed=N/A elapsed=0:00:00.51    \nframe=    4 fps=3.9 q=47.0 size=       0KiB time=00:00:00.16 bitrate=  23.1kbits/s speed=0.161x elapsed=0:00:01.03    \nframe=    8 fps=5.2 q=45.0 size=       0KiB time=00:00:00.33 bitrate=  11.6kbits/s speed=0.215x elapsed=0:00:01.55    \nframe=   12 fps=5.8 q=45.0 size=       0KiB time=00:00:00.50 bitrate=   7.7kbits/s speed=0.242x elapsed=0:00:02.06    \nframe=   15 fps=5.8 q=44.0 size=       0KiB time=00:00:00.62 bitrate=   6.2kbits/s speed=0.242x elapsed=0:00:02.58    \nframe=   18 fps=5.8 q=44.0 size=       0KiB time=00:00:00.75 bitrate=   5.1kbits/s speed=0.242x elapsed=0:00:03.10    \nframe=   20 fps=5.5 q=44.0 size=       0KiB time=00:00:00.83 bitrate=   4.6kbits/s speed=0.231x elapsed=0:00:03.61    \nframe=   23 fps=5.6 q=42.0 size=       0KiB time=00:00:00.95 bitrate=   4.0kbits/s speed=0.232x elapsed=0:00:04.13    \nframe=   26 fps=5.6 q=43.0 size=       0KiB time=00:00:01.08 bitrate=   3.6kbits/s speed=0.233x elapsed=0:00:04.64    \nframe=   29 fps=5.6 q=44.0 size=       0KiB time=00:00:01.20 bitrate=   3.2kbits/s speed=0.234x elapsed=0:00:05.15    \nframe=   31 fps=5.5 q=31.0 size=       0KiB time=00:00:01.29 bitrate=   3.0kbits/s speed=0.228x elapsed=0:00:05.66    \nframe=   34 fps=5.5 q=43.0 size=       0KiB time=00:00:01.41 bitrate=   2.7kbits/s speed=0.229x elapsed=0:00:06.19    \nframe=   36 fps=5.4 q=43.0 size=       0KiB time=00:00:01.50 bitrate=   2.6kbits/s speed=0.224x elapsed=0:00:06.70    \nframe=   39 fps=5.4 q=45.0 size=       0KiB time=00:00:01.62 bitrate=   2.4kbits/s speed=0.225x elapsed=0:00:07.22    \nframe=   40 fps=5.2 q=45.0 size=       0KiB time=00:00:01.66 bitrate=   2.3kbits/s speed=0.215x elapsed=0:00:07.74    \nframe=   43 fps=5.2 q=43.0 size=       0KiB time=00:00:01.79 bitrate=   2.2kbits/s speed=0.217x elapsed=0:00:08.25    \nframe=   45 fps=5.1 q=44.0 size=       0KiB time=00:00:01.87 bitrate=   2.1kbits/s speed=0.214x elapsed=0:00:08.77    \nframe=   48 fps=5.2 q=45.0 size=       0KiB time=00:00:02.00 bitrate=   1.9kbits/s speed=0.215x elapsed=0:00:09.28    \nframe=   50 fps=5.1 q=46.0 size=       0KiB time=00:00:02.08 bitrate=   1.9kbits/s speed=0.213x elapsed=0:00:09.79    \nframe=   52 fps=5.0 q=47.0 size=       0KiB time=00:00:02.16 bitrate=   1.8kbits/s speed=0.21x elapsed=0:00:10.31    \nframe=   55 fps=5.1 q=46.0 size=       0KiB time=00:00:02.29 bitrate=   1.7kbits/s speed=0.212x elapsed=0:00:10.83    \nframe=   57 fps=5.0 q=47.0 size=       0KiB time=00:00:02.37 bitrate=   1.6kbits/s speed=0.209x elapsed=0:00:11.34    \nframe=   60 fps=5.1 q=48.0 size=       0KiB time=00:00:02.50 bitrate=   1.5kbits/s speed=0.211x elapsed=0:00:11.85    \nframe=   62 fps=5.0 q=47.0 size=       0KiB time=00:00:02.58 bitrate=   1.5kbits/s speed=0.209x elapsed=0:00:12.37    \nframe=   64 fps=5.0 q=46.0 size=       0KiB time=00:00:02.66 bitrate=   1.4kbits/s speed=0.207x elapsed=0:00:12.89    \nframe=   67 fps=5.0 q=46.0 size=       0KiB time=00:00:02.79 bitrate=   1.4kbits/s speed=0.208x elapsed=0:00:13.40    \nframe=   70 fps=5.0 q=46.0 size=       0KiB time=00:00:02.91 bitrate=   1.3kbits/s speed=0.209x elapsed=0:00:13.92    \nframe=   72 fps=5.0 q=46.0 size=       0KiB time=00:00:03.00 bitrate=   1.3kbits/s speed=0.208x elapsed=0:00:14.43    \nframe=   75 fps=5.0 q=45.0 size=       0KiB time=00:00:03.12 bitrate=   1.2kbits/s speed=0.209x elapsed=0:00:14.95    \nframe=   77 fps=5.0 q=45.0 size=       0KiB time=00:00:03.20 bitrate=   1.2kbits/s speed=0.207x elapsed=0:00:15.46    \nframe=   80 fps=5.0 q=46.0 size=       0KiB time=00:00:03.33 bitrate=   1.2kbits/s speed=0.208x elapsed=0:00:15.99    \nframe=   82 fps=5.0 q=46.0 size=       0KiB time=00:00:03.41 bitrate=   1.1kbits/s speed=0.207x elapsed=0:00:16.50    \nframe=   85 fps=5.0 q=45.0 size=       0KiB time=00:00:03.54 bitrate=   1.1kbits/s speed=0.208x elapsed=0:00:17.01    \nframe=   87 fps=5.0 q=46.0 size=       0KiB time=00:00:03.62 bitrate=   1.1kbits/s speed=0.207x elapsed=0:00:17.52    \nframe=   90 fps=5.0 q=46.0 size=       0KiB time=00:00:03.75 bitrate=   1.0kbits/s speed=0.208x elapsed=0:00:18.05    \nframe=   91 fps=4.9 q=31.0 size=       0KiB time=00:00:03.79 bitrate=   1.0kbits/s speed=0.204x elapsed=0:00:18.56    \nframe=   92 fps=4.8 q=47.0 size=       0KiB time=00:00:03.83 bitrate=   1.0kbits/s speed=0.201x elapsed=0:00:19.09    \nframe=   94 fps=4.8 q=45.0 size=       0KiB time=00:00:03.91 bitrate=   1.0kbits/s speed= 0.2x elapsed=0:00:19.60    \nframe=   96 fps=4.8 q=45.0 size=       0KiB time=00:00:04.00 bitrate=   1.0kbits/s speed=0.199x elapsed=0:00:20.12    \nframe=   97 fps=4.7 q=46.0 size=       0KiB time=00:00:04.04 bitrate=   1.0kbits/s speed=0.196x elapsed=0:00:20.65    \nframe=   99 fps=4.7 q=46.0 size=       0KiB time=00:00:04.12 bitrate=   0.9kbits/s speed=0.195x elapsed=0:00:21.16    \nframe=  100 fps=4.6 q=46.0 size=       0KiB time=00:00:04.16 bitrate=   0.9kbits/s speed=0.192x elapsed=0:00:21.69    \nframe=  101 fps=4.5 q=31.0 size=       0KiB time=00:00:04.20 bitrate=   0.9kbits/s speed=0.189x elapsed=0:00:22.21    \nframe=  103 fps=4.5 q=44.0 size=       0KiB time=00:00:04.29 bitrate=   0.9kbits/s speed=0.189x elapsed=0:00:22.73    \nframe=  105 fps=4.5 q=44.0 size=       0KiB time=00:00:04.37 bitrate=   0.9kbits/s speed=0.188x elapsed=0:00:23.25    \nframe=  106 fps=4.5 q=44.0 size=       0KiB time=00:00:04.41 bitrate=   0.9kbits/s speed=0.186x elapsed=0:00:23.78    \nframe=  108 fps=4.4 q=45.0 size=       0KiB time=00:00:04.50 bitrate=   0.9kbits/s speed=0.185x elapsed=0:00:24.29    \nframe=  109 fps=4.4 q=45.0 size=       0KiB time=00:00:04.54 bitrate=   0.8kbits/s speed=0.183x elapsed=0:00:24.82    \nframe=  110 fps=4.3 q=45.0 size=       0KiB time=00:00:04.58 bitrate=   0.8kbits/s speed=0.181x elapsed=0:00:25.34    \nframe=  111 fps=4.3 q=30.0 size=       0KiB time=00:00:04.62 bitrate=   0.8kbits/s speed=0.179x elapsed=0:00:25.86    \nframe=  113 fps=4.3 q=44.0 size=       0KiB time=00:00:04.70 bitrate=   0.8kbits/s speed=0.178x elapsed=0:00:26.42    \nframe=  115 fps=4.3 q=44.0 size=       0KiB time=00:00:04.79 bitrate=   0.8kbits/s speed=0.178x elapsed=0:00:26.95    \nframe=  117 fps=4.3 q=45.0 size=       0KiB time=00:00:04.87 bitrate=   0.8kbits/s speed=0.177x elapsed=0:00:27.47    \nframe=  119 fps=4.2 q=45.0 size=       0KiB time=00:00:04.95 bitrate=   0.8kbits/s speed=0.177x elapsed=0:00:28.00    \nframe=  120 fps=4.2 q=45.0 size=       0KiB time=00:00:05.00 bitrate=   0.8kbits/s speed=0.175x elapsed=0:00:28.51    \nframe=  123 fps=4.2 q=43.0 size=    1280KiB time=00:00:05.12 bitrate=2046.0kbits/s speed=0.177x elapsed=0:00:29.03    \nframe=  126 fps=4.3 q=44.0 size=    1280KiB time=00:00:05.25 bitrate=1997.3kbits/s speed=0.178x elapsed=0:00:29.54    \nframe=  128 fps=4.3 q=44.0 size=    1280KiB time=00:00:05.33 bitrate=1966.1kbits/s speed=0.177x elapsed=0:00:30.06    \nframe=  131 fps=4.3 q=40.0 size=    1280KiB time=00:00:05.45 bitrate=1921.1kbits/s speed=0.178x elapsed=0:00:30.58    \nframe=  134 fps=4.3 q=42.0 size=    1280KiB time=00:00:05.58 bitrate=1878.0kbits/s speed=0.18x elapsed=0:00:31.09    \nframe=  138 fps=4.4 q=43.0 size=    1280KiB time=00:00:05.75 bitrate=1823.6kbits/s speed=0.182x elapsed=0:00:31.60    \nframe=  140 fps=4.4 q=44.0 size=    1280KiB time=00:00:05.83 bitrate=1797.6kbits/s speed=0.182x elapsed=0:00:32.12    \nframe=  144 fps=4.4 q=43.0 size=    1280KiB time=00:00:06.00 bitrate=1747.6kbits/s speed=0.184x elapsed=0:00:32.63    \nframe=  147 fps=4.4 q=43.0 size=    1280KiB time=00:00:06.12 bitrate=1712.0kbits/s speed=0.185x elapsed=0:00:33.15    \nframe=  148 fps=4.4 q=43.0 size=    1280KiB time=00:00:06.16 bitrate=1700.4kbits/s speed=0.183x elapsed=0:00:33.67    \nframe=  152 fps=4.4 q=41.0 size=    1280KiB time=00:00:06.33 bitrate=1655.6kbits/s speed=0.185x elapsed=0:00:34.18    \nframe=  155 fps=4.5 q=42.0 size=    1280KiB time=00:00:06.45 bitrate=1623.6kbits/s speed=0.186x elapsed=0:00:34.70    \nframe=  158 fps=4.5 q=43.0 size=    1280KiB time=00:00:06.58 bitrate=1592.8kbits/s speed=0.187x elapsed=0:00:35.21    \nframe=  160 fps=4.5 q=43.0 size=    1280KiB time=00:00:06.66 bitrate=1572.9kbits/s speed=0.187x elapsed=0:00:35.73    \nframe=  164 fps=4.5 q=42.0 size=    1280KiB time=00:00:06.83 bitrate=1534.5kbits/s speed=0.189x elapsed=0:00:36.24    \nframe=  167 fps=4.5 q=43.0 size=    1280KiB time=00:00:06.95 bitrate=1506.9kbits/s speed=0.189x elapsed=0:00:36.77    \nframe=  168 fps=4.5 q=43.0 size=    1280KiB time=00:00:07.00 bitrate=1498.0kbits/s speed=0.188x elapsed=0:00:37.27    \nframe=  172 fps=4.6 q=42.0 size=    1280KiB time=00:00:07.16 bitrate=1463.1kbits/s speed=0.19x elapsed=0:00:37.79    \nframe=  175 fps=4.6 q=43.0 size=    1280KiB time=00:00:07.29 bitrate=1438.0kbits/s speed=0.19x elapsed=0:00:38.31    \nframe=  178 fps=4.6 q=44.0 size=    1280KiB time=00:00:07.41 bitrate=1413.8kbits/s speed=0.191x elapsed=0:00:38.83    \nframe=  178 fps=4.5 q=44.0 size=    1280KiB time=00:00:07.41 bitrate=1413.8kbits/s speed=0.189x elapsed=0:00:39.34    \nframe=  182 fps=4.6 q=43.0 size=    1280KiB time=00:00:07.58 bitrate=1382.7kbits/s speed=0.19x elapsed=0:00:39.86    \nframe=  185 fps=4.6 q=44.0 size=    1280KiB time=00:00:07.70 bitrate=1360.3kbits/s speed=0.191x elapsed=0:00:40.37    \nframe=  188 fps=4.6 q=45.0 size=    1280KiB time=00:00:07.83 bitrate=1338.6kbits/s speed=0.192x elapsed=0:00:40.90    \nframe=  190 fps=4.6 q=44.0 size=    1280KiB time=00:00:07.91 bitrate=1324.5kbits/s speed=0.191x elapsed=0:00:41.42    \nframe=  194 fps=4.6 q=44.0 size=    1280KiB time=00:00:08.08 bitrate=1297.2kbits/s speed=0.193x elapsed=0:00:41.93    \nframe=  197 fps=4.6 q=45.0 size=    1280KiB time=00:00:08.20 bitrate=1277.5kbits/s speed=0.193x elapsed=0:00:42.45    \nframe=  198 fps=4.6 q=45.0 size=    1280KiB time=00:00:08.25 bitrate=1271.0kbits/s speed=0.192x elapsed=0:00:42.97    \nframe=  201 fps=4.6 q=43.0 size=    1280KiB time=00:00:08.37 bitrate=1252.0kbits/s speed=0.193x elapsed=0:00:43.48    \nframe=  204 fps=4.6 q=43.0 size=    1280KiB time=00:00:08.50 bitrate=1233.6kbits/s speed=0.193x elapsed=0:00:43.99    \nframe=  207 fps=4.7 q=44.0 size=    1280KiB time=00:00:08.62 bitrate=1215.7kbits/s speed=0.194x elapsed=0:00:44.51    \nframe=  208 fps=4.6 q=44.0 size=    1280KiB time=00:00:08.66 bitrate=1209.9kbits/s speed=0.192x elapsed=0:00:45.04    \nframe=  212 fps=4.7 q=45.0 size=    1280KiB time=00:00:08.83 bitrate=1187.1kbits/s speed=0.194x elapsed=0:00:45.56    \nframe=  215 fps=4.7 q=45.0 size=    1280KiB time=00:00:08.95 bitrate=1170.5kbits/s speed=0.194x elapsed=0:00:46.08    \nframe=  216 fps=4.6 q=45.0 size=    1280KiB time=00:00:09.00 bitrate=1165.1kbits/s speed=0.193x elapsed=0:00:46.59    \nframe=  216 fps=4.6 q=45.0 size=    1280KiB time=00:00:09.00 bitrate=1165.1kbits/s speed=0.191x elapsed=0:00:47.12    \nframe=  216 fps=4.5 q=45.0 size=    1280KiB time=00:00:09.00 bitrate=1165.1kbits/s speed=0.189x elapsed=0:00:47.64    \nframe=  216 fps=4.5 q=45.0 size=    1280KiB time=00:00:09.00 bitrate=1165.1kbits/s speed=0.187x elapsed=0:00:48.15    \nframe=  216 fps=4.4 q=45.0 size=    1280KiB time=00:00:09.00 bitrate=1165.1kbits/s speed=0.185x elapsed=0:00:48.67    \nframe=  216 fps=4.4 q=45.0 size=    1280KiB time=00:00:09.00 bitrate=1165.1kbits/s speed=0.183x elapsed=0:00:49.18    \nframe=  216 fps=4.3 q=45.0 size=    1280KiB time=00:00:09.00 bitrate=1165.1kbits/s speed=0.181x elapsed=0:00:49.70    \nframe=  216 fps=4.3 q=45.0 size=    1280KiB time=00:00:09.00 bitrate=1165.1kbits/s speed=0.179x elapsed=0:00:50.21    \nframe=  216 fps=4.3 q=45.0 size=    1280KiB time=00:00:09.00 bitrate=1165.1kbits/s speed=0.177x elapsed=0:00:50.73    \n[out#0/webm @ 0000023486aa9a00] video:2682KiB audio:0KiB subtitle:0KiB other streams:0KiB global headers:0KiB muxing overhead: 0.082295%\nframe=  240 fps=4.7 q=38.0 Lsize=    2684KiB time=00:00:10.00 bitrate=2198.8kbits/s speed=0.196x elapsed=0:00:51.04    \n",
  "seconds": 51.2360680103302,
  "probe_out": {}
}